<svg xmlns="http://www.w3.org/2000/svg" width="164.683" height="34" viewBox="0 0 164.683 34">
  <g id="Logo" transform="translate(9.175 -32)">
    <text id="Reality_Pro" data-name="Reality Pro" transform="translate(34.508 58)" fill="#0084ff" font-size="25" font-family="Roboto-Medium, Roboto" font-weight="500"><tspan x="0" y="0">Reality</tspan><tspan y="0" xml:space="preserve" fill="#101c36"> Pro</tspan></text>
    <path id="toy-ball" d="M16.466,0A16.5,16.5,0,1,1-.017,16.391,16.492,16.492,0,0,1,16.466,0Zm4.811,14.926c0-.277-.01-.551.007-.825.007-.182-.043-.241-.234-.264A4.97,4.97,0,0,1,17.8,12.118c-.145-.168-.248-.145-.409-.049q-1.495.911-2.937,1.9A48.589,48.589,0,0,0,6.718,20.4a12.3,12.3,0,0,0-2.1,2.792.667.667,0,0,0,.036.756,14.157,14.157,0,0,0,4.864,4.666,14.716,14.716,0,0,0,5.841,1.838,2.052,2.052,0,0,0,2.138-.9,15.391,15.391,0,0,0,1.967-4.016,38.989,38.989,0,0,0,1.808-10.606ZM5.507,7.963c.264-.129.521-.267.792-.379a11.7,11.7,0,0,1,5.907-.637,19.994,19.994,0,0,1,4.547,1.069c.2.073.284.02.373-.162a3.282,3.282,0,0,1,1.257-1.366,3.705,3.705,0,0,1,1.67-.568c.122-.01.32.036.234-.224a7.84,7.84,0,0,0-1.336-2.63,1.143,1.143,0,0,0-.871-.452c-.231-.01-.459-.046-.69-.059A13.912,13.912,0,0,0,8.916,4.765a12.525,12.525,0,0,0-3.409,3.2ZM29.7,20.971c.049-.142.106-.284.148-.429A13.985,13.985,0,0,0,27.845,8.379a.754.754,0,0,0-.69-.343,7.449,7.449,0,0,0-1.884.29c-.29.073-.36.145-.231.452a3.477,3.477,0,0,1-.3,3.544c-.1.152-.059.221.056.323a19.263,19.263,0,0,1,1.894,1.884A11.082,11.082,0,0,1,29.7,20.971Zm-5.933-10.85c-.007-.053-.013-.2-.04-.337a3.193,3.193,0,0,0-3.749-2.373A1.877,1.877,0,0,0,18.559,9.86a3.232,3.232,0,0,0,3.874,2.082,1.857,1.857,0,0,0,1.336-1.822Z" transform="translate(-9.157 33)" fill="#0084ff"/>
  </g>
</svg>
