<?xml version="1.0" encoding="utf-8"?>
<!-- Generator: Adobe Illustrator 19.0.0, SVG Export Plug-In . SVG Version: 6.00 Build 0)  -->
<svg version="1.1" id="Ebene_1" 
    xmlns="http://www.w3.org/2000/svg" 
    xmlns:xlink="http://www.w3.org/1999/xlink" x="0px" y="0px" width="20.7px" height="13.3px" viewBox="-589.7 144.4 20.7 13.3" style="enable-background:new -589.7 144.4 20.7 13.3;" xml:space="preserve">
    <g id="Mockups">
        <g id="Login" transform="translate(-30.000000, -60.000000)">
            <g id="Shape">
                <path fill="currentColor" d="M-540.6,210.2h-15.5l3.7-3.7c0.3-0.3,0.3-0.9,0-1.2c-0.3-0.3-0.9-0.3-1.2,0l-5.1,5.1c-0.3,0.3-0.3,0.9,0,1.2l5.1,5.1
				c0.2,0.2,0.4,0.2,0.6,0.2s0.4-0.1,0.6-0.2c0.3-0.3,0.3-0.9,0-1.2l-3.7-3.7h15.5c0.5,0,0.8-0.4,0.8-0.8
				C-539.8,210.5-540.2,210.2-540.6,210.2z"/>
                <path fill="currentColor" d="M-553,217.5c-0.4,0-0.7-0.1-0.9-0.4l-5.1-5.1c-0.3-0.3-0.4-0.6-0.4-0.9s0.1-0.7,0.4-0.9l5.1-5.1c0.5-0.5,1.4-0.5,1.9,0
				c0.3,0.3,0.4,0.6,0.4,0.9s-0.1,0.7-0.4,0.9l-2.9,2.9h14.3c0.7,0,1.3,0.6,1.3,1.3s-0.6,1.3-1.3,1.3H-555l2.9,2.9
				c0.3,0.3,0.4,0.6,0.4,0.9c0,0.4-0.1,0.7-0.4,0.9C-552.4,217.3-552.7,217.5-553,217.5z M-553,205.5c-0.1,0-0.2,0-0.2,0.1l-5.1,5.1
				c-0.1,0.1-0.1,0.1-0.1,0.2s0,0.2,0.1,0.2l5.1,5.1c0.1,0.1,0.3,0.1,0.5,0c0.1-0.1,0.1-0.1,0.1-0.2c0-0.1,0-0.2-0.1-0.2l-4.6-4.6
				h16.7c0.2,0,0.3-0.1,0.3-0.3s-0.1-0.3-0.3-0.3h-16.7l4.6-4.6c0.1-0.1,0.1-0.1,0.1-0.2s0-0.2-0.1-0.2
				C-552.9,205.6-553,205.5-553,205.5z"/>
            </g>
        </g>
    </g>
</svg>
