<?xml version="1.0" encoding="UTF-8"?>
<svg width="31px" height="31px" fill="currentColor"  viewBox="0 0 31 31" version="1.1" xmlns="http://www.w3.org/2000/svg" xmlns:xlink="http://www.w3.org/1999/xlink">
    <!-- Generator: Sketch 55.2 (78181) - https://sketchapp.com -->
    <title>sale</title>
    <desc>Created with Sketch.</desc>
    <g id="Page-1" stroke="none" stroke-width="1" fill="currentColor" fill-rule="evenodd">
        <g id="Home-page" transform="translate(-300.000000, -502.000000)" fill="currentColor" fill-rule="nonzero">
            <g id="02" transform="translate(0.000000, 405.000000)">
                <g id="icons" transform="translate(20.000000, 84.000000)">
                    <g id="4" transform="translate(279.000000, 13.000000)">
                        <g id="sale" transform="translate(1.000000, 0.000000)">
                            <path d="M30.4728165,13.7440226 C28.9175186,11.4248294 27.8534546,8.86085219 27.3101883,6.12337809 C27.0644531,4.886003 26.1046906,3.92811128 24.8646622,3.68285511 C22.1218415,3.14041179 19.5528564,2.07842195 17.2291336,0.526391965 C16.1785507,-0.17538531 14.8212127,-0.17538531 13.7708664,0.526391965 C11.4471436,2.07842195 8.87815854,3.14041179 6.13533781,3.68285511 C4.89554597,3.92811128 3.93554688,4.886003 3.68981169,6.12337809 C3.14654541,8.86085219 2.08248137,11.4248294 0.527183518,13.7440226 C-0.175727859,14.7925576 -0.175727859,16.1472497 0.527183518,17.1955486 C2.08248137,19.5147417 3.14654541,22.078719 3.68981169,24.8161931 C3.93554688,26.0535682 4.89530942,27.0116959 6.13533781,27.256716 C8.87815854,27.7991594 11.4471436,28.8611492 13.7708664,30.4134153 C14.8209762,31.1149565 16.1785507,31.1151925 17.2291336,30.4134153 C19.5528564,28.8611492 22.1218415,27.7991594 24.8646622,27.256716 C26.104454,27.0114599 27.0644531,26.0535682 27.3101883,24.8161931 C27.8534546,22.078719 28.9175186,19.5147417 30.4728165,17.1955486 C31.1757279,16.1472497 31.1757279,14.7923215 30.4728165,13.7440226 Z M28.4603424,15.8514787 C26.7264786,18.4367005 25.5403748,21.2947962 24.9346695,24.3464531 C24.8802719,24.6200353 24.6681213,24.8317723 24.3940048,24.8860639 C21.3363876,25.4905885 18.4724731,26.6746162 15.8822021,28.4048642 C15.6499481,28.5599492 15.3498154,28.5599492 15.1175614,28.4048642 C12.5272904,26.6746162 9.66361238,25.4905885 6.60599519,24.8860639 C6.33187866,24.8317723 6.11949155,24.6200353 6.06533049,24.3464531 C5.45938875,21.2947962 4.27328491,18.4367005 2.53965756,15.8514787 C2.3842697,15.6196775 2.3842697,15.3201298 2.53965756,15.0883285 C4.27328491,12.5031067 5.45938875,9.64477493 6.06533049,6.59311801 C6.11949155,6.31953582 6.33187866,6.10779881 6.60599519,6.05374333 C9.66361238,5.4489827 12.5272904,4.26519096 15.1175614,2.53494306 C15.3498154,2.37985804 15.6499481,2.37985804 15.8822021,2.53494306 C18.4724731,4.26519096 21.3363876,5.4489827 24.3940048,6.05374333 C24.6681213,6.10779881 24.8802719,6.31953582 24.9346695,6.59311801 C25.5403748,9.64477493 26.7267151,12.5031067 28.4603424,15.0883285 C28.6157303,15.3201298 28.6157303,15.6196775 28.4603424,15.8514787 L28.4603424,15.8514787 Z M21.1185608,11.5711806 L11.5937805,21.077394 C11.1207581,21.5494944 10.3542252,21.5492584 9.88143921,21.077394 C9.40865324,20.6055297 9.40865324,19.8402549 9.88143921,19.3683906 L19.4062195,9.86217714 C19.8790054,9.39031279 20.6457748,9.39031279 21.1185608,9.86217714 C21.5913468,10.3342775 21.5913468,11.0993162 21.1185608,11.5711806 Z M14.3295059,10.7166788 C14.3295059,8.73999449 12.7181549,7.13178452 10.7376099,7.13178452 C8.75682829,7.13178452 7.14547729,8.73999449 7.14547729,10.7166788 C7.14547729,12.6933632 8.75682829,14.3015732 10.7376099,14.3015732 C12.7181549,14.3015732 14.3295059,12.6933632 14.3295059,10.7166788 Z M9.5671158,10.7166788 C9.5671158,10.0724979 10.0921707,9.54846645 10.7376099,9.54846645 C11.383049,9.54846645 11.9081039,10.0724979 11.9081039,10.7166788 C11.9081039,11.3608598 11.383049,11.8848912 10.7376099,11.8848912 C10.0921707,11.8848912 9.5671158,11.3608598 9.5671158,10.7166788 Z M20.2623901,16.637998 C18.2818451,16.637998 16.6702576,18.2462079 16.6702576,20.2228923 C16.6702576,22.1995767 18.2818451,23.8077866 20.2623901,23.8077866 C22.2429352,23.8077866 23.8542862,22.1995767 23.8542862,20.2228923 C23.8542862,18.2462079 22.2429352,16.637998 20.2623901,16.637998 L20.2623901,16.637998 Z M20.2623901,21.3911047 C19.616951,21.3911047 19.0918961,20.8670733 19.0918961,20.2228923 C19.0918961,19.5789474 19.616951,19.0549159 20.2623901,19.0549159 C20.9078293,19.0549159 21.4328842,19.5789474 21.4328842,20.2228923 C21.4328842,20.8670733 20.9078293,21.3911047 20.2623901,21.3911047 L20.2623901,21.3911047 Z" id="Shape"></path>
                        </g>
                    </g>
                </g>
            </g>
        </g>
    </g>
</svg>