<svg xmlns="http://www.w3.org/2000/svg" id="plant" xmlns:xlink="http://www.w3.org/1999/xlink" version="1.1"  x="0px" y="0px" width="600px" height="600px" viewBox="0 0 100 100" enable-background="new 0 0 600 600" xml:space="preserve"><g><polyline fill="none" stroke="#fff" stroke-width="2" stroke-miterlimit="10" points="25.4,9.1 37.7,16.2 50.3,23.3 50.3,62.6"/><polygon fill="none" stroke="#fff" stroke-width="2" stroke-miterlimit="10" points="31.5,20.3 19.4,13 19.4,5.5 25.6,2.2 38,8.9 38,16.4"/><polyline fill="none" stroke="#fff" stroke-width="2" stroke-miterlimit="10" points="31.8,5.5 31.8,12.8 25.6,16.8"/><polyline fill="none" stroke="#fff" stroke-width="2" stroke-miterlimit="10" points="19.4,13 25.6,9.2 25.6,2.2"/><polyline fill="none" stroke="#fff" stroke-width="2" stroke-miterlimit="10" points="75.2,23.2 62.9,30.4 50.3,37.4"/><polygon fill="none" stroke="#fff" stroke-width="2" stroke-miterlimit="10" points="69.1,34.5 81.3,27.1 81.3,19.6 75,16.3 62.6,23.1 62.6,30.5"/><polyline fill="none" stroke="#fff" stroke-width="2" stroke-miterlimit="10" points="68.8,19.7 68.8,26.9 75,30.9"/><polyline fill="none" stroke="#fff" stroke-width="2" stroke-miterlimit="10" points="81.3,27.1 75,23.4 75,16.3"/><line fill="none" stroke="#fff" stroke-width="2" stroke-miterlimit="10" x1="19.4" y1="52.1" x2="81.3" y2="52.1"/><polygon fill="none" stroke="#fff" stroke-width="2" stroke-miterlimit="10" points="68.6,80.4 56.3,87.5 44,80.4 44,66.2 56.3,59.1 68.6,66.2"/><polygon fill="none" stroke="#fff" stroke-width="2" stroke-miterlimit="10" points="75,91.3 62.6,98.4 50.3,91.3 50.3,77 62.6,69.9 75,77"/><polygon fill="none" stroke="#fff" stroke-width="2" stroke-miterlimit="10" points="62.6,91.3 50.3,98.4 38,91.3 38,77 50.3,69.9 62.6,77"/><polygon fill="none" stroke="#fff" stroke-width="2" stroke-miterlimit="10" points="50.3,91.3 38,98.4 25.6,91.3 25.6,77 38,69.9 50.3,77"/><polygon fill="none" stroke="#fff" stroke-width="2" stroke-miterlimit="10" points="56.3,80.4 44,87.5 31.6,80.4 31.6,66.2 44,59.1 56.3,66.2"/></g></svg>

